<svg xmlns="http://www.w3.org/2000/svg" width="256" height="256" viewBox="0 0 100 100"><rect width="100" height="100" rx="20" fill="#002646"></rect><path d="M22.82 59.85L16.88 59.85L16.88 77.22Q15.89 77.50 14.09 77.72Q12.29 77.94 10.31 77.94L10.31 77.94Q6.08 77.94 4.42 76.50Q2.75 75.06 2.75 71.28L2.75 71.28L2.75 27.63Q2.75 25.84 3.70 24.84Q4.64 23.85 6.44 23.31L6.44 23.31Q7.88 22.77 9.73 22.41Q11.57 22.05 13.50 21.78Q15.44 21.52 17.38 21.42Q19.31 21.34 21.02 21.34L21.02 21.34Q33.26 21.34 39.56 26.51Q45.86 31.69 45.86 40.69L45.86 40.69Q45.86 45.00 44.29 48.56Q42.71 52.11 39.74 54.63Q36.77 57.16 32.50 58.50Q28.22 59.85 22.82 59.85L22.82 59.85ZM16.79 48.78L21.92 48.78Q26.33 48.78 28.94 46.76Q31.55 44.73 31.55 40.69L31.55 40.69Q31.55 32.67 22.01 32.67L22.01 32.67Q20.39 32.67 19.17 32.77Q17.96 32.85 16.79 33.03L16.79 33.03L16.79 48.78ZM96.98 30.34L96.98 30.34Q96.98 32.41 95.90 33.98Q94.82 35.55 93.38 36.45L93.38 36.45Q91.04 34.92 88.29 33.76Q85.55 32.59 81.77 32.59L81.77 32.59Q74.57 32.59 70.52 37.13Q66.47 41.67 66.47 50.05L66.47 50.05Q66.47 58.69 70.75 63.05Q75.02 67.41 82.49 67.41L82.49 67.41Q86.36 67.41 89.10 66.38Q91.85 65.34 94.19 63.91L94.19 63.91Q95.54 64.98 96.39 66.65Q97.25 68.31 97.25 70.38L97.25 70.38Q97.25 72.19 96.31 73.76Q95.36 75.33 93.02 76.41L93.02 76.41Q91.22 77.31 88.16 78.08Q85.10 78.84 80.60 78.84L80.60 78.84Q74.57 78.84 69.35 77.13Q64.13 75.42 60.26 71.91Q56.39 68.41 54.19 62.96Q51.98 57.52 51.98 50.05L51.98 50.05Q51.98 43.02 54.19 37.63Q56.39 32.23 60.17 28.58Q63.95 24.94 68.99 23.05Q74.03 21.16 79.79 21.16L79.79 21.16Q87.98 21.16 92.48 23.77Q96.98 26.38 96.98 30.34Z" fill="#fff"></path></svg>