<?xml version="1.0" encoding="UTF-8"?>
<svg width="30px" height="30px" viewBox="0 0 46 40" version="1.1" xmlns="http://www.w3.org/2000/svg" xmlns:xlink="http://www.w3.org/1999/xlink">
    <title>noun_cart_3735003</title>
    <g id="Page-1" stroke="none" stroke-width="1" fill="none" fill-rule="evenodd">
        <g id="noun_cart_3735003" fill="#FFFFFF" fill-rule="nonzero">
            <g id="Group">
                <path d="M19.46777,39.51465 C21.3608611,39.5092848 23.0080907,38.2179404 23.46521,36.38086 L30.8913,36.38086 C31.3964576,38.4070639 33.3334252,39.7383363 35.4060874,39.4838609 C37.4787496,39.2293855 39.0361429,37.4690856 39.0361429,35.38086 C39.0361429,33.2926344 37.4787496,31.5323345 35.4060874,31.2778591 C33.3334252,31.0233837 31.3964576,32.3546561 30.8913,34.38086 L23.46521,34.38086 C22.9414211,32.2963413 20.9057134,30.9625841 18.7854443,31.314766 C16.6651753,31.6669479 15.1699664,33.5871991 15.3481987,35.7291155 C15.5264311,37.871032 17.3184531,39.5177473 19.46777,39.51465 L19.46777,39.51465 Z M34.88867,33.24707 C36.0671297,33.24707 37.02246,34.2024003 37.02246,35.38086 C37.02246,36.5593197 36.0671297,37.51465 34.88867,37.51465 C33.7102103,37.51465 32.75488,36.5593197 32.75488,35.38086 C32.7559661,34.2028505 33.7106605,33.2481561 34.88867,33.24707 L34.88867,33.24707 Z M19.46777,33.24707 C20.3308093,33.24707 21.1088727,33.766938 21.4391492,34.5642801 C21.7694256,35.3616221 21.5868725,36.2794065 20.9766144,36.8896703 C20.3663564,37.4999341 19.4485737,37.6824958 18.6512285,37.3522268 C17.8538834,37.0219578 17.334,36.2438993 17.334,35.38086 C17.3352181,34.2029131 18.2898231,33.2482992 19.46777,33.24707 L19.46777,33.24707 Z" id="Shape"></path>
                <path d="M41.13965,5.0293 L13.11707,5.0293 L13.06055,4.76172 C12.5244417,2.27474109 10.3302151,0.495716098 7.78613,0.48535 L1.88086,0.48535 C1.32857525,0.48535 0.88086,0.93306525 0.88086,1.48535 C0.88086,2.03763475 1.32857525,2.48535 1.88086,2.48535 L7.78613,2.48535 C9.38649294,2.49193143 10.7666596,3.61125773 11.10352,5.17578 L15.2959,25.02148 C15.8856387,27.7597136 18.3015411,29.7185174 21.10254,29.72948 L37.05469,29.72948 C37.6069747,29.72948 38.05469,29.2817647 38.05469,28.72948 C38.05469,28.1771953 37.6069747,27.72948 37.05469,27.72948 L21.10254,27.72948 C19.2451267,27.7226751 17.6430782,26.4233987 17.25293,24.60741 L17.11902,23.97362 L35.05371,23.97362 C36.6443366,23.9787397 38.1242083,23.1599146 38.96484,21.80956 L45.05078,12.09569 C45.9419853,10.6730378 45.9905524,8.87869914 45.1776091,7.40992094 C44.3646658,5.94114275 42.8183954,5.02951906 41.13965,5.02929 L41.13965,5.0293 Z M43.35547,11.0332 L37.26953,20.74707 C36.7935162,21.5124227 35.955012,21.976574 35.05371,21.9736439 L16.69653,21.9736439 L13.53953,7.0293 L41.13963,7.0293 C42.0907777,7.02952701 42.9668224,7.54610122 43.427379,8.37830891 C43.8879356,9.2105166 43.8603919,10.2271506 43.35545,11.0332 L43.35547,11.0332 Z" id="Shape"></path>
                <path d="M17.10645,13.5166 C16.8451095,13.5619081 16.6124748,13.7091861 16.4597308,13.9260294 C16.3069869,14.1428726 16.246648,14.4115154 16.29199,14.67285 L16.56348,16.24121 C16.6465146,16.7200736 17.0618409,17.0698881 17.54785,17.07031 C17.6054523,17.0702439 17.6629474,17.0653433 17.71973,17.05566 C17.9810687,17.0103495 18.2137009,16.8630706 18.3664428,16.6462276 C18.5191846,16.4293846 18.5795222,16.1607432 18.53418,15.89941 L18.2627,14.33105 C18.1668835,13.7877637 17.6502712,13.4238676 17.10645,13.5166 L17.10645,13.5166 Z" id="Path"></path>
                <path d="M23.46484,8.05664 L16.334,8.05664 C16.0390213,8.0570207 15.7592234,8.18746956 15.5692926,8.413166 C15.3793618,8.63886243 15.2986311,8.93683275 15.34865,9.22754 L15.66311,11.04102 C15.7461673,11.5198706 16.1614798,11.8696736 16.64748,11.87012 C16.7050821,11.8700489 16.7625768,11.8651484 16.81936,11.85547 C17.3634741,11.7609587 17.7280501,11.2433811 17.63381,10.69922 L17.52248,10.05664 L23.46486,10.05664 C24.0171447,10.05664 24.46486,9.60892475 24.46486,9.05664 C24.46486,8.50435525 24.0171447,8.05664 23.46486,8.05664 L23.46484,8.05664 Z" id="Path"></path>
            </g>
        </g>
    </g>
</svg>
